<?xml version="1.0" encoding="UTF-8"?>
<!DOCTYPE svg PUBLIC "-//W3C//DTD SVG 1.1//EN" "http://www.w3.org/Graphics/SVG/1.1/DTD/svg11.dtd">
<svg xmlns="http://www.w3.org/2000/svg" version="1.1" width="722px" height="250px" style="shape-rendering:geometricPrecision; text-rendering:geometricPrecision; image-rendering:optimizeQuality; fill-rule:evenodd; clip-rule:evenodd" xmlns:xlink="http://www.w3.org/1999/xlink">
<g><path style="opacity:0.533" fill="#d29744" d="M 423.5,6.5 C 424.946,5.38705 426.613,5.22039 428.5,6C 427.099,6.4101 425.766,6.9101 424.5,7.5C 424.5,6.83333 424.167,6.5 423.5,6.5 Z"/></g>
<g><path style="opacity:0.708" fill="#e09c37" d="M 423.5,6.5 C 424.167,6.5 424.5,6.83333 424.5,7.5C 414.8,9.93749 404.8,12.7708 394.5,16C 388.437,19.3324 381.437,22.4991 373.5,25.5C 372.833,25.1667 372.167,24.8333 371.5,24.5C 372.974,23.3249 374.64,22.3249 376.5,21.5C 376.333,21.1667 376.167,20.8333 376,20.5C 365.005,25.1263 354.171,29.1263 343.5,32.5C 343.027,31.0937 342.027,30.427 340.5,30.5C 367.334,20.2021 395,12.2021 423.5,6.5 Z"/></g>
<g><path style="opacity:0.871" fill="#e69e30" d="M 371.5,24.5 C 372.167,24.8333 372.833,25.1667 373.5,25.5C 369.509,28.9905 365.676,32.6572 362,36.5C 358.639,41.0971 359.139,45.2637 363.5,49C 380.219,54.9149 397.386,55.7482 415,51.5C 415.333,51.8333 415.667,52.1667 416,52.5C 425.434,50.5469 434.934,48.7136 444.5,47C 457.413,43.268 471.08,38.6014 485.5,33C 489.844,30.8295 493.844,28.1628 497.5,25C 498.5,24.3333 499.5,24.3333 500.5,25C 492.859,32.1592 484.192,37.8259 474.5,42C 441.848,55.4972 407.515,61.1638 371.5,59C 364.991,57.8773 358.991,55.544 353.5,52C 350.668,47.5453 350.502,43.0453 353,38.5C 355.833,35.6667 358.667,32.8333 361.5,30C 365.048,28.396 368.382,26.5626 371.5,24.5 Z"/></g>
<g><path style="opacity:0.959" fill="#eca027" d="M 340.5,30.5 C 342.027,30.427 343.027,31.0937 343.5,32.5C 330.138,38.8245 317.305,44.4912 305,49.5C 290.692,57.9145 276.526,66.7478 262.5,76C 251.097,84.4012 241.431,94.4012 233.5,106C 233.833,106.333 234.167,106.667 234.5,107C 226.47,121.978 229.803,133.812 244.5,142.5C 249.74,145.952 255.406,148.618 261.5,150.5C 280.283,154.392 299.616,156.392 319.5,156.5C 326.593,156.31 333.593,155.643 340.5,154.5C 345.175,154.438 350.008,154.438 355,154.5C 373.386,151.5 391.219,148.5 408.5,145.5C 419.709,143.593 430.709,140.926 441.5,137.5C 442.167,137.5 442.5,137.167 442.5,136.5C 474.95,128.894 506.616,117.561 537.5,102.5C 540.09,105.383 540.09,108.383 537.5,111.5C 504.449,128.371 470.782,141.037 436.5,149.5C 423.828,153.167 411.161,156.5 398.5,159.5C 382.068,163.182 365.401,165.849 348.5,167.5C 348.565,167.062 348.399,166.728 348,166.5C 341.535,167.769 335.035,168.769 328.5,169.5C 302.228,171.307 276.895,169.974 252.5,165.5C 246.726,163.353 240.726,161.353 234.5,159.5C 207.275,146.655 202.441,127.988 220,103.5C 222.04,101.63 223.873,99.6298 225.5,97.5C 229.1,95.5698 232.1,92.9031 234.5,89.5C 249.493,74.9574 266.327,63.6241 285,55.5C 302.936,45.0586 321.436,36.7252 340.5,30.5 Z"/></g>
<g><path style="opacity:0.865" fill="#e39d33" d="M 580.5,84.5 C 578.259,83.7002 577.259,82.0336 577.5,79.5C 586.566,73.9636 594.9,67.4636 602.5,60C 603.332,59.3123 603.998,59.479 604.5,60.5C 597.452,69.5482 589.452,77.5482 580.5,84.5 Z"/></g>
<g><path style="opacity:0.928" fill="#79797c" d="M 234.5,159.5 C 240.726,161.353 246.726,163.353 252.5,165.5C 242.026,183.103 231.526,200.77 221,218.5C 216.879,222.815 212.045,223.649 206.5,221C 203.956,215.334 201.789,209.501 200,203.5C 191.843,172.538 183.843,141.538 176,110.5C 157.246,146.079 139.246,182.079 122,218.5C 116.333,223.833 110.667,223.833 105,218.5C 87.8773,182.254 70.2106,146.254 52,110.5C 41.5675,145.891 31.9008,181.558 23,217.5C 20.4586,222.069 16.6253,223.569 11.5,222C 7.52045,220.522 5.85378,217.688 6.5,213.5C 16.8829,169.635 28.0496,125.968 40,82.5C 42.3387,75.7249 46.8387,73.5583 53.5,76C 55.6998,78.2336 57.5331,80.7336 59,83.5C 76.5029,120.517 94.6696,157.184 113.5,193.5C 132.845,156.143 151.678,118.477 170,80.5C 173.04,74.6318 177.54,73.1318 183.5,76C 185.041,77.5793 186.208,79.4127 187,81.5C 196.063,118.351 205.73,155.018 216,191.5C 222.431,180.969 228.598,170.303 234.5,159.5 Z"/></g>
<g><path style="opacity:0.93" fill="#79797c" d="M 340.5,154.5 C 333.593,155.643 326.593,156.31 319.5,156.5C 319.245,153.984 318.411,151.65 317,149.5C 307.162,133.828 297.829,117.828 289,101.5C 279.132,117.511 269.965,133.844 261.5,150.5C 255.406,148.618 249.74,145.952 244.5,142.5C 257.339,120.813 270.005,98.9799 282.5,77C 288.118,73.19 292.951,74.0233 297,79.5C 311.512,104.527 326.012,129.527 340.5,154.5 Z"/></g>
<g><path style="opacity:0.938" fill="#79797c" d="M 442.5,136.5 C 441.833,136.5 441.5,136.833 441.5,137.5C 430.709,140.926 419.709,143.593 408.5,145.5C 392.648,126.621 376.815,107.621 361,88.5C 358.715,82.3599 360.548,77.8599 366.5,75C 368.971,74.2937 371.305,74.627 373.5,76C 389.667,94.8333 405.833,113.667 422,132.5C 437.725,113.534 453.558,94.7008 469.5,76C 474.973,73.3618 479.473,74.5285 483,79.5C 483.817,82.9643 483.483,86.2976 482,89.5C 468.825,105.198 455.659,120.864 442.5,136.5 Z"/></g>
<g><path style="opacity:0.856" fill="#79797c" d="M 556.5,92.5 C 553.996,95.3714 553.996,98.0381 556.5,100.5C 556.667,138.501 556.5,176.501 556,214.5C 554.462,221.191 550.295,223.691 543.5,222C 541,220.833 539.167,219 538,216.5C 537.5,181.502 537.333,146.502 537.5,111.5C 540.09,108.383 540.09,105.383 537.5,102.5C 537.334,95.4921 537.5,88.4921 538,81.5C 542.834,73.13 548.501,72.4634 555,79.5C 556.283,84.0619 556.783,88.3953 556.5,92.5 Z"/></g>
<g><path style="opacity:0.935" fill="#79797c" d="M 577.5,79.5 C 577.259,82.0336 578.259,83.7002 580.5,84.5C 599.269,121.366 618.602,158.033 638.5,194.5C 659.255,155.992 679.755,117.325 700,78.5C 705.442,73.0595 710.442,73.3929 715,79.5C 715.667,82.1667 715.667,84.8333 715,87.5C 692.543,131.149 669.876,174.816 647,218.5C 641.333,223.833 635.667,223.833 630,218.5C 608.941,177.86 587.774,137.193 566.5,96.5C 566.043,95.7025 565.376,95.3691 564.5,95.5C 564.918,94.7784 565.584,94.2784 566.5,94C 565.717,91.8816 564.384,90.3816 562.5,89.5C 559.63,80.7071 562.63,75.8738 571.5,75C 574.229,75.5661 576.229,77.0661 577.5,79.5 Z"/></g>
<g><path style="opacity:0.924" fill="#e29d31" d="M 562.5,89.5 C 564.384,90.3816 565.717,91.8816 566.5,94C 565.584,94.2784 564.918,94.7784 564.5,95.5C 561.869,97.1526 559.203,98.8193 556.5,100.5C 553.996,98.0381 553.996,95.3714 556.5,92.5C 558.5,91.5 560.5,90.5 562.5,89.5 Z"/></g>
<g><path style="opacity:0.824" fill="#ce9548" d="M 234.5,89.5 C 232.1,92.9031 229.1,95.5698 225.5,97.5C 227.9,94.0969 230.9,91.4302 234.5,89.5 Z"/></g>
<g><path style="opacity:0.942" fill="#79797c" d="M 436.5,149.5 C 452.056,169.233 468.223,188.567 485,207.5C 489.288,217.886 485.788,222.719 474.5,222C 473.069,221.535 471.903,220.701 471,219.5C 454.667,199.833 438.333,180.167 422,160.5C 406.418,178.688 391.085,197.022 376,215.5C 367.972,225.154 360.639,224.821 354,214.5C 345.488,199.473 336.988,184.473 328.5,169.5C 335.035,168.769 341.535,167.769 348,166.5C 348.399,166.728 348.565,167.062 348.5,167.5C 353.682,178.339 359.682,188.672 366.5,198.5C 377.145,185.387 388.145,172.554 399.5,160C 399.272,159.601 398.938,159.435 398.5,159.5C 411.161,156.5 423.828,153.167 436.5,149.5 Z"/></g>
</svg>
